<mxfile host="Electron" agent="Mozilla/5.0 (X11; Linux x86_64) AppleWebKit/537.36 (KHTML, like Gecko) draw.io/24.7.17 Chrome/128.0.6613.186 Electron/32.2.5 Safari/537.36" version="24.7.17">
  <diagram name="Page-1" id="aZMpdY_pDrGBuF8NrbvR">
    <mxGraphModel dx="622" dy="811" grid="1" gridSize="10" guides="1" tooltips="1" connect="1" arrows="1" fold="1" page="1" pageScale="1" pageWidth="850" pageHeight="1100" math="0" shadow="0">
      <root>
        <mxCell id="0" />
        <mxCell id="1" parent="0" />
        <mxCell id="nJAz-dMS3WywcQ4a5LNc-3" style="edgeStyle=orthogonalEdgeStyle;rounded=0;orthogonalLoop=1;jettySize=auto;html=1;entryX=0.5;entryY=0;entryDx=0;entryDy=0;" edge="1" parent="1" source="nJAz-dMS3WywcQ4a5LNc-1" target="nJAz-dMS3WywcQ4a5LNc-2">
          <mxGeometry relative="1" as="geometry" />
        </mxCell>
        <mxCell id="nJAz-dMS3WywcQ4a5LNc-1" value="start" style="ellipse;whiteSpace=wrap;html=1;" vertex="1" parent="1">
          <mxGeometry x="260" y="380" width="120" height="80" as="geometry" />
        </mxCell>
        <mxCell id="nJAz-dMS3WywcQ4a5LNc-5" style="edgeStyle=orthogonalEdgeStyle;rounded=0;orthogonalLoop=1;jettySize=auto;html=1;entryX=0.5;entryY=0;entryDx=0;entryDy=0;" edge="1" parent="1" source="nJAz-dMS3WywcQ4a5LNc-2" target="nJAz-dMS3WywcQ4a5LNc-4">
          <mxGeometry relative="1" as="geometry" />
        </mxCell>
        <mxCell id="nJAz-dMS3WywcQ4a5LNc-2" value="a = 10.2&lt;div&gt;b = 9.3&lt;/div&gt;&lt;div&gt;x = 2.4&lt;/div&gt;&lt;div&gt;c = 0.5&lt;/div&gt;" style="rounded=1;whiteSpace=wrap;html=1;" vertex="1" parent="1">
          <mxGeometry x="260" y="500" width="120" height="60" as="geometry" />
        </mxCell>
        <mxCell id="nJAz-dMS3WywcQ4a5LNc-7" style="edgeStyle=orthogonalEdgeStyle;rounded=0;orthogonalLoop=1;jettySize=auto;html=1;entryX=0.5;entryY=0;entryDx=0;entryDy=0;" edge="1" parent="1" source="nJAz-dMS3WywcQ4a5LNc-4" target="nJAz-dMS3WywcQ4a5LNc-6">
          <mxGeometry relative="1" as="geometry" />
        </mxCell>
        <mxCell id="nJAz-dMS3WywcQ4a5LNc-4" value="print output of funcK(a, b, x)" style="shape=parallelogram;perimeter=parallelogramPerimeter;whiteSpace=wrap;html=1;fixedSize=1;" vertex="1" parent="1">
          <mxGeometry x="260" y="600" width="120" height="60" as="geometry" />
        </mxCell>
        <mxCell id="nJAz-dMS3WywcQ4a5LNc-10" style="edgeStyle=orthogonalEdgeStyle;rounded=0;orthogonalLoop=1;jettySize=auto;html=1;exitX=0.5;exitY=1;exitDx=0;exitDy=0;entryX=0.5;entryY=0;entryDx=0;entryDy=0;" edge="1" parent="1" source="nJAz-dMS3WywcQ4a5LNc-6" target="nJAz-dMS3WywcQ4a5LNc-9">
          <mxGeometry relative="1" as="geometry" />
        </mxCell>
        <mxCell id="nJAz-dMS3WywcQ4a5LNc-6" value="print output of funcM(a, b, c, x)" style="shape=parallelogram;perimeter=parallelogramPerimeter;whiteSpace=wrap;html=1;fixedSize=1;" vertex="1" parent="1">
          <mxGeometry x="260" y="700" width="120" height="60" as="geometry" />
        </mxCell>
        <mxCell id="nJAz-dMS3WywcQ4a5LNc-12" style="edgeStyle=orthogonalEdgeStyle;rounded=0;orthogonalLoop=1;jettySize=auto;html=1;entryX=0.5;entryY=0;entryDx=0;entryDy=0;" edge="1" parent="1" source="nJAz-dMS3WywcQ4a5LNc-8" target="nJAz-dMS3WywcQ4a5LNc-11">
          <mxGeometry relative="1" as="geometry" />
        </mxCell>
        <mxCell id="nJAz-dMS3WywcQ4a5LNc-8" value="funcK(a, b, x)" style="ellipse;whiteSpace=wrap;html=1;" vertex="1" parent="1">
          <mxGeometry x="530" y="380" width="120" height="80" as="geometry" />
        </mxCell>
        <mxCell id="nJAz-dMS3WywcQ4a5LNc-9" value="end" style="ellipse;whiteSpace=wrap;html=1;" vertex="1" parent="1">
          <mxGeometry x="260" y="800" width="120" height="80" as="geometry" />
        </mxCell>
        <mxCell id="nJAz-dMS3WywcQ4a5LNc-11" value="return lg(a + x^3) + sin(x/b)^2" style="ellipse;whiteSpace=wrap;html=1;" vertex="1" parent="1">
          <mxGeometry x="490" y="490" width="200" height="80" as="geometry" />
        </mxCell>
        <mxCell id="nJAz-dMS3WywcQ4a5LNc-13" style="edgeStyle=orthogonalEdgeStyle;rounded=0;orthogonalLoop=1;jettySize=auto;html=1;entryX=0.5;entryY=0;entryDx=0;entryDy=0;" edge="1" source="nJAz-dMS3WywcQ4a5LNc-14" target="nJAz-dMS3WywcQ4a5LNc-15" parent="1">
          <mxGeometry relative="1" as="geometry" />
        </mxCell>
        <mxCell id="nJAz-dMS3WywcQ4a5LNc-14" value="funcK(a, b, x)" style="ellipse;whiteSpace=wrap;html=1;" vertex="1" parent="1">
          <mxGeometry x="810" y="380" width="120" height="80" as="geometry" />
        </mxCell>
        <mxCell id="nJAz-dMS3WywcQ4a5LNc-15" value="return (e^(-c*x)) * ((x+cbrt(x+a))/(x-sqrt(|x-b|))" style="ellipse;whiteSpace=wrap;html=1;" vertex="1" parent="1">
          <mxGeometry x="730" y="490" width="280" height="80" as="geometry" />
        </mxCell>
      </root>
    </mxGraphModel>
  </diagram>
</mxfile>
